<svg width="20" height="20" viewBox="0 0 20 20" fill="none" xmlns="http://www.w3.org/2000/svg">
<path d="M9.94141 0.273438C4.61049 0.273438 0.273438 4.61049 0.273438 9.94141C0.273438 15.2924 4.60158 19.7266 9.94141 19.7266C12.102 19.7266 14.2876 19.0004 15.9378 17.7343C16.323 17.4388 16.3956 16.8871 16.1001 16.502C15.8046 16.1168 15.2529 16.0442 14.8678 16.3397C13.5184 17.375 11.7228 17.9805 9.94141 17.9805C5.57975 17.9805 2.03125 14.3677 2.03125 9.94141C2.03125 5.57975 5.57975 2.01953 9.94141 2.01953C14.3677 2.01953 17.9688 5.57975 17.9688 9.94141V10.8203C17.9688 11.7896 17.1802 12.5781 16.2109 12.5781C15.2417 12.5781 14.4531 11.7896 14.4531 10.8203C14.4531 10.385 14.4531 6.88492 14.4531 6.42578C14.4531 5.94039 14.0596 5.54688 13.5742 5.54688C13.0888 5.54688 12.6953 5.94039 12.6953 6.42578V6.4815C11.9016 5.87629 10.9415 5.54688 9.94141 5.54688C7.51826 5.54688 5.54688 7.51826 5.54688 9.94141C5.54688 12.3646 7.51826 14.3359 9.94141 14.3359C11.2553 14.3359 12.4644 13.7721 13.3243 12.8235C13.9599 13.7366 15.0165 14.3359 16.2109 14.3359C18.1495 14.3359 19.7266 12.7588 19.7266 10.8203V9.94141C19.7266 4.59449 15.2857 0.273438 9.94141 0.273438ZM9.94141 12.5898C8.48752 12.5898 7.30469 11.3953 7.30469 9.94141C7.30469 8.48752 8.48752 7.29297 9.94141 7.29297C11.4342 7.29297 12.6953 8.51213 12.6953 9.94141C12.6953 11.3707 11.4342 12.5898 9.94141 12.5898Z" fill="#118BDD"/>
</svg>
